<svg viewBox="0 0 205 252" fill="none" xmlns="http://www.w3.org/2000/svg">
<path d="M85.0744 194.069C85.2281 189.92 78.9519 187.305 70.1074 182.243C49.0907 170.214 48.327 164.263 33.7331 160.039C30.6631 159.15 17.1009 155.224 14.029 159.92C13.2582 161.098 12.9713 163.089 17.3796 172.542C22.254 182.994 24.6911 188.219 28.5202 192.194C36.2903 200.26 40.0717 196.566 53.4827 206.07C62.6862 212.592 66.3776 218.209 70.0689 216.733C72.9512 215.581 71.7821 211.724 76.0026 205.125C80.4789 198.125 84.9459 197.534 85.0742 194.069L85.0744 194.069Z" fill="currentColor"/>
<path d="M47.2584 155.223C67.7999 166.486 75.0118 183.323 80.0381 180.496C83.1859 178.726 83.0759 170.593 80.7024 165.226C78.6258 160.529 74.7997 157.301 75.1791 156.904C75.6391 156.424 80.1734 162.373 84.6861 161.574C88.8915 160.829 92.5318 154.319 91.008 150.224C90.1288 147.861 87.883 147.251 83.3784 144.845C78.4675 142.222 79.7848 142.225 70.7694 136.418C53.0053 124.976 43.4391 118.814 39.7575 121.727C38.3721 122.823 39.3801 123.97 37.9303 135.379C37.1118 141.82 36.6064 142.903 37.1753 145.117C38.6182 150.733 44.4111 153.661 47.2587 155.223L47.2584 155.223Z" fill="currentColor"/>
<path d="M68.3676 126.77C75.3818 133.72 78.0924 136.202 80.5232 135.454C83.0777 134.669 83.3933 130.912 86.4496 130.575C88.4613 130.354 89.3625 131.867 90.4608 131.292C92.1755 130.394 90.3092 126.533 91.7334 121.619C93.0458 117.091 95.6283 116.927 95.6243 114.117C95.6206 111.504 92.3253 109.014 85.7349 104.141C77.9485 98.383 74.0302 95.4928 72.8032 94.9375C69.31 93.3567 59.4681 88.9028 55.0429 92.7498C50.1582 96.9961 53.7401 109.735 58.8983 117.215C59.2732 117.758 62.3047 120.762 68.3675 126.77L68.3676 126.77Z" fill="currentColor"/>
<path d="M98.6037 109.656C100.452 108.565 97.0483 103.79 98.4911 94.7077C99.5092 88.2977 101.831 86.7344 100.802 82.642C100.187 80.1966 98.0568 78.0209 93.8228 73.7688C89.0026 68.9284 86.5929 66.5083 84.4159 66.2195C78.2131 65.3966 70.0887 73.1152 70.2285 80.3104C70.2853 83.2369 71.6882 84.9754 81.1485 94.6236C94.7109 108.455 97.2766 110.439 98.6037 109.656Z" fill="currentColor"/>
<path d="M99.827 70.6828C100.549 72.6374 102.15 74.8891 103.673 74.7961C105.444 74.6882 105.825 71.4879 109.214 67.1342C111.338 64.4053 114.226 61.7603 114.785 62.1578C115.56 62.7097 111.063 68.5716 107.941 77.6482C106.268 82.5102 102.85 94.5157 105.914 96.2177C108.55 97.6821 116.767 91.9545 118.318 85.0046C118.824 82.7402 118.779 79.6402 119.586 79.5381C120.319 79.4453 120.482 81.9842 122.074 82.7442C124.691 83.9933 129.207 79.4982 132.824 75.897C138.148 70.5965 140.925 67.7456 140.538 63.9344C140.506 63.6286 140.12 60.3024 137.599 58.4632C134.859 56.4639 131.472 57.591 131.163 56.5469C130.843 55.4671 134.505 54.3903 136.701 51.4088C137.324 50.5635 139.099 47.8403 138.234 40.5071C137.275 32.3682 136.029 21.8008 128.293 19.2711C121.72 17.1221 112.921 21.5789 110.909 27.4375C108.788 33.6157 114.249 41.2564 113.709 41.5153C113.196 41.7609 110.682 33.7094 106.535 33.3538C102.239 32.9858 96.4247 40.8944 97.8815 46.5126C98.685 49.6117 100.966 49.179 102.243 52.3737C104.758 58.6681 97.3078 63.862 99.8279 70.6839L99.827 70.6828Z" fill="currentColor"/>
<path d="M99.8822 134.408C101.721 135.508 105.446 130.908 113.152 125.335C120.762 119.832 122.513 120.425 129.145 116.088C137.696 110.496 151.562 98.5373 148.973 91.9244C147.299 87.6464 139.189 86.7588 134.941 86.9938C130.646 87.2313 126.984 89.2594 119.835 93.3063C111.766 97.8745 107.731 100.158 105.752 102.908C104.717 104.346 104.032 105.705 100.743 123.023C99.1114 131.617 98.8086 133.765 99.8822 134.408Z" fill="currentColor"/>
<path d="M163.18 131.014C160.401 123.498 141.304 124.542 136.03 124.831C127.927 125.274 122.448 127.254 113.96 130.322C104.48 133.748 103.648 135.503 103.415 136.463C101.836 142.993 118.604 151.754 117.505 153.699C116.538 155.409 104.533 146.951 97.5293 151.237C91.4198 154.975 90.682 167.449 94.1849 169.549C95.038 170.061 95.5748 169.616 105.434 165.106C116.049 160.252 139.135 157.117 146.147 152.599C151.569 149.106 165.872 138.298 163.18 131.014Z" fill="currentColor"/>
<path d="M129.581 169.129C123.763 167.738 123.909 166.358 119.012 165.9C106.259 164.707 96.9962 173.293 92.3023 177.645C90.5708 179.25 89.1665 180.827 89.5391 182.239C90.1622 184.6 95.3477 185.452 98.9766 185.325C102.769 185.193 104.174 184.022 109.318 182.423C116.189 180.287 121.782 179.858 121.851 180.151C121.956 180.599 109.51 184.389 96.6931 190.875C95.4272 191.516 93.1037 192.726 91.398 195.288C88.1506 200.166 88.4978 207.906 91.453 209.432C94.5828 211.049 98.239 203.627 109.428 199.056C117.523 195.75 118.811 198.327 128.314 195.117C137.723 191.939 143.886 186.905 148.695 182.976C150.294 181.67 164.513 170.054 162.574 166.797C160.72 163.683 147.144 173.329 129.581 169.129Z" fill="currentColor"/>
<path d="M139.722 197.126C134.083 197.592 129.473 198.574 104.669 207.589C88.8961 213.322 84.5531 215.181 82.52 220.081C80.5864 224.742 81.017 231.491 84.5203 233.838C89.6592 237.281 96.1074 227.699 111.723 223.65C130.111 218.882 143.119 226.477 148.609 218.705C150.606 215.878 149.898 213.441 153.571 208.527C157.672 203.041 161.62 201.978 161.288 200.191C160.754 197.313 149.814 196.292 139.722 197.126L139.722 197.126Z" fill="currentColor"/>
</svg>
