<svg viewBox="0 0 314 116" fill="none" xmlns="http://www.w3.org/2000/svg">
<path d="M6.20023 29.8165C3.75059 31.7349 1.55754 33.4526 0.494473 36.3597C0.0404621 37.6015 -0.167292 38.9506 0.15881 42.5673C0.494473 46.2892 1.07691 52.1967 4.18651 59.6805C4.4922 60.416 5.50901 62.5757 7.54288 66.8949C10.9067 74.0385 10.6308 73.1942 10.8993 73.9416C11.892 76.705 12.0907 78.3021 13.7523 79.8136C14.3998 80.4029 14.599 80.369 16.2696 81.6592C18.2699 83.2041 18.7017 83.8068 19.626 84.5115C22.1139 86.408 23.7684 85.6875 26.5064 86.8603C29.7695 88.2582 30.7194 90.6954 32.3801 92.3971C36.9593 97.089 45.8201 95.0373 52.3504 94.2426C63.9671 92.829 61.6777 96.1882 84.4035 97.2626C93.2876 97.6827 93.2189 97.1495 119.813 96.5915C135.707 96.2579 143.654 96.0913 147.671 96.2559C169.817 97.1634 168.095 100.324 190.632 101.457C201.062 101.981 207.302 101.599 214.63 105.316C217.396 106.719 220.275 108.685 225.37 109.846C230.082 110.92 231.227 110.061 236.782 111.524C240.162 112.414 241.168 113.108 245.34 114.04C249.677 115.009 251.845 115.493 253.06 114.712C256.579 112.448 253.108 105.005 256.752 102.296C259.72 100.09 264.321 103.32 265.982 101.122C267.565 99.0268 264.457 94.6767 266.317 93.0685C266.831 92.6244 267.435 92.6389 267.943 92.5913C271.792 92.2322 274.76 87.8911 276.843 85.3051C280.178 81.166 283.508 78.7108 287.421 75.8264C289.652 74.1818 294.219 70.8645 300.772 68.4756C307.986 65.8452 313.384 65.8804 313.735 63.5752C313.912 62.414 312.704 61.3432 311.929 60.6735C304.857 54.5618 297.51 49.2937 295.87 48.0999C289.529 43.4839 286.358 41.1759 284.608 37.7974C283.348 35.3643 282.935 33.2775 281.036 32.4311C277.998 31.0785 274.004 34.1648 271.426 36.0419C271.426 36.0419 261.9 42.9791 250.013 48.6156C246.746 50.1646 239.623 51.3679 225.376 53.7741C223.271 54.1296 202.949 57.5616 202.802 56.8047C202.727 56.4228 207.812 55.1252 209.316 54.7413C217.569 52.6348 220.265 53.0055 224.472 51.5818C227.323 50.6172 231.262 48.6949 235.437 44.4245C237.333 44.4385 240.004 44.3106 243.112 43.6508C244.488 43.3586 249.61 42.1847 256.269 37.9766C265.473 32.1604 264.355 28.9268 271.49 26.1122C274.824 24.7972 277.855 24.4038 278.391 22.3079C279.007 19.905 275.819 17.3098 275.618 17.1493C270.616 13.1689 262.702 16.5293 261.88 16.8915C256.707 18.2855 251.396 19.4589 250.98 18.439C250.839 18.0933 251.383 17.7949 251.819 16.9558C252.164 16.2919 252.983 14.2495 248.981 6.57449C247.403 3.54753 246.59 2.02049 245.434 1.35165C243.095 -0.00101602 240.434 0.685391 237.759 1.41623C232.466 2.86216 232.856 4.62119 224.924 8.50919C222.176 9.85617 220.178 10.6015 218.732 12.8294C217.913 14.0916 217.839 14.9566 216.669 15.9246C214.897 17.3896 213.398 16.7905 211.96 17.9233C211.072 18.6237 210.141 20.0376 210.154 23.2108C208.706 20.1877 208.214 17.62 208.026 15.9246C207.592 12.0146 208.219 8.38028 208.219 8.38028C208.736 5.38484 209.553 3.83687 208.8 3.15744C208.028 2.46096 206.174 3.18844 205.123 3.80225C200.83 6.31124 200.202 12.6238 199.964 15.0219C199.325 21.4468 201.398 26.7495 202.995 29.8524C202.514 29.6951 201.391 29.4031 200.093 29.7878C199.234 30.0423 198.678 30.4802 198.416 30.6904C196.555 32.1839 196.228 34.5854 196.158 35.2685C194.4 35.1726 193.301 34.6185 192.611 34.1078C191.107 32.9946 190.879 31.5926 188.935 30.6259C188.333 30.3267 187.743 30.0436 187.129 30.2389C185.726 30.6845 185.641 33.1604 185.258 33.1405C184.806 33.1168 184.148 29.6158 184.484 23.6618C184.904 16.2493 186.48 11.8387 185.258 11.2817C184.689 11.0218 183.847 11.7547 182.614 12.8291C179.988 15.1175 178.738 17.6802 178.357 18.5036C176.279 22.9927 176.232 27.1308 176.229 30.2391C176.227 32.3707 176.401 35.3555 177.196 38.8795C176.602 37.5579 175.985 36.5387 175.509 35.8275C174.751 34.6947 174.436 34.472 174.101 34.4304C173.05 34.3007 172.135 35.9867 172.064 36.1207C171.774 34.7089 171.387 32.5794 171.112 29.9655C170.412 23.3146 170.062 19.9893 171.283 16.8003C171.853 15.3113 173.085 12.8361 174.117 8.81326C174.453 7.5027 174.623 6.59309 174.165 6.19964C173.161 5.33524 169.827 7.56625 168.131 8.93519C164.145 12.1513 162.397 16.0927 162.145 16.6781C160.347 20.8594 161.199 22.7589 159.58 31.6264C159.171 33.8665 158.762 35.6893 158.481 36.8779C157.749 37.5803 156.867 38.2941 156.453 38.0503C155.987 37.7762 156.463 36.4977 156.624 34.6797C156.832 32.3386 156.54 28.8679 155.378 28.5245C154.197 28.1758 152.405 31.14 152.275 31.3577C150.303 34.6725 150.712 38.3923 150.712 38.3923C150.924 40.3177 151.571 41.3937 150.858 42.4712C150.422 43.1315 149.512 43.735 148.88 43.4971C147.759 43.076 148.676 40.4572 147.096 38.8075C146.06 37.7261 145.074 38.2334 144.052 37.5395C141.316 35.6826 142.121 27.802 144.706 21.793C146.011 18.7603 146.681 16.1312 148.02 10.8727C148.12 10.4806 148.336 9.59267 147.938 9.27775C147.115 8.62596 144.207 10.8552 142.579 12.4272C141.246 13.7137 139.782 15.5156 137.302 21.0981C137.302 21.0981 133.729 29.1404 133.129 37.5398C133.051 38.6287 133.063 39.723 133.742 40.6073C134.723 41.8843 136.322 41.7197 136.524 42.6523C136.684 43.3888 135.903 44.486 134.97 44.6973C133.454 45.0409 132.694 42.7846 130.47 42.6115C128.715 42.4748 128.01 43.7877 127.238 43.4294C126.039 42.8732 126.513 39.142 127.933 32.7135C129.84 24.0793 130.794 19.7622 132.188 16.6399C133.532 13.6287 135.1 10.9539 134.233 10.1367C134.087 9.99903 133.524 9.58543 131.042 10.7092C126.453 12.7883 123.774 16.2914 123.269 16.967C118.918 22.7925 117.904 28.9126 117.419 32.0591C116.778 36.2186 116.879 39.8543 117.174 42.6523C116.327 42.7314 115.309 42.8952 114.187 43.2248C112.768 43.642 111.616 44.1982 110.751 44.6971C110.794 42.5585 111.077 39.3378 112.346 35.6583C113.064 33.5774 113.265 33.7624 114.269 30.9547C115.743 26.8355 115.266 26.5632 116.846 21.384C117.586 18.9593 117.962 18.1323 117.542 17.744C116.704 16.969 113.489 18.6681 111.242 20.607C106.303 24.8672 103.384 32.5683 103.182 39.6664C103.127 41.6102 103.272 43.6361 102.651 43.7973C101.775 44.0244 99.8017 40.4495 98.805 37.2533C96.2277 28.9883 99.2575 20.2794 101.014 15.4128C103.032 9.82207 105.017 6.94314 104 6.0467C102.783 4.97305 98.5042 7.83932 96.3502 9.60507C91.7215 13.399 89.6723 18.038 88.6591 20.4026C88.2767 21.2952 86.5291 25.4826 86.032 31.3676C85.7366 34.8634 85.9788 37.8201 86.2863 39.9529C85.3777 39.7561 84.0444 39.5931 82.5226 39.9121C80.912 40.2498 80.0549 40.9256 79.6999 40.6076C79.1407 40.1064 80.5453 37.7821 81.2544 36.4356C83.856 31.4967 82.3511 29.7519 84.4454 21.5073C86.0888 15.0379 87.9033 12.6168 86.9408 11.8549C85.7428 10.9068 81.7508 13.7222 79.2906 16.1904C74.3783 21.1182 73.075 27.1677 72.5403 29.81C71.7682 33.6272 71.8349 36.9619 72.0902 39.4215C71.6566 39.5228 68.2444 40.2666 66.0356 38.1536C65.6757 37.8092 64.5759 36.7573 64.6446 35.4134C64.7188 33.9644 66.1253 32.6804 66.8948 31.9778C67.6165 31.319 68.2974 30.9067 68.654 29.9327C68.8633 29.3613 68.8586 28.8751 68.8586 28.7056C68.8571 26.8154 69.3739 19.1326 70.3313 14.4724C70.9408 11.5059 71.5494 10.6392 72.8266 4.77903C73.4737 1.81123 73.6334 0.585155 73.0313 0.157346C71.814 -0.707574 68.1612 2.17497 65.9948 4.37008C61.2133 9.21497 59.6242 14.8142 58.4673 18.8895C56.4417 26.0261 56.6125 32.2046 56.7081 34.9223C56.7321 35.6022 56.7644 36.1672 56.79 36.5584C56.2313 35.8422 55.3042 34.8058 53.9264 33.859C52.8086 33.0909 51.5822 32.2485 50.531 32.3048C48.4607 32.4159 46.4558 36.045 45.7447 41.18C45.6992 36.8565 44.4185 35.1323 43.2901 34.3498C40.6498 32.5185 36.8874 34.4849 35.3127 32.3867C34.2455 30.9648 35.0507 28.8327 34.3308 28.624C33.6579 28.4289 32.6042 30.1908 32.3672 30.5871C31.5794 31.9046 30.5359 34.2411 30.5672 37.8263C30.0228 34.8742 29.7021 32.6262 29.5036 31.0369C29.414 30.319 29.2966 29.3166 28.7264 29.1146C27.9514 28.8402 27.2759 30.3745 25.331 30.9142C24.9798 31.0116 23.3382 31.4673 22.4674 30.6687C21.6402 29.9103 22.1606 28.6186 21.4446 28.2148C20.8694 27.8903 20.2167 28.5455 19.3172 28.8283C16.8239 29.6127 15.1882 26.6707 12.2807 26.4971C10.5701 26.3948 9.11344 27.5359 6.19971 29.8178L6.20023 29.8165Z" fill="currentColor"/>
</svg>
