<svg viewBox="0 0 244 219" fill="none" xmlns="http://www.w3.org/2000/svg">
<path d="M236.987 131.185C239.298 129.818 244.157 126.864 243.996 123.129C243.9 120.923 242.048 118.293 240.59 118.382C239.63 118.44 239.288 119.647 238.631 119.518C237.471 119.291 238.32 115.486 236.462 113.532C235.894 112.934 234.772 112.194 228.623 112.71C224.283 113.074 221.915 113.689 216.971 114.472C211.937 115.269 208.961 115.492 208.928 115.302C208.827 114.734 235.156 110.145 235.528 103.518C235.58 102.59 235.152 101.125 235.835 98.9747C236.513 96.8372 237.512 96.4731 238.218 94.5388C238.824 92.8804 239.199 90.1133 238.097 88.4429C236.195 85.5567 230.237 86.4787 226.443 87.1074C216.69 88.7232 209.726 92.971 209.636 92.795C209.534 92.5953 218.526 87.1118 224.791 83.1849C230.165 79.8159 232.695 78.118 233.242 75.1272C233.739 72.417 232.488 69.3051 230.557 67.5921C224.486 62.2057 210.158 69.2896 203.746 72.4596C188.185 80.1532 178.327 89.9836 169.729 98.7022C159.706 108.865 151.042 119.818 144.376 128.244C137.675 136.714 133.689 142.317 133.349 142.085C132.819 141.722 140.721 126.905 152.514 111.308C155.784 106.982 190.184 61.8176 198.374 54.4984C199.043 53.9006 201.143 52.1352 201.052 49.8508C200.965 47.6739 198.967 46.9719 198.987 44.9998C199.01 42.6784 201.792 42.3113 203.418 39.4224C205.416 35.8736 204.212 31.1076 202.484 28.1696C202.083 27.4885 199.187 22.5644 194.437 22.2895C191.029 22.0922 188.37 24.3854 186.91 25.7007C174.822 36.5938 169.596 46.0492 169.596 46.0492C159.63 64.0831 154.845 76.5924 154.041 76.3079C153.659 76.1727 154.18 73.1452 158.156 59.1675C164.415 37.1651 166.921 31.308 165.664 21.8928C165.193 18.3691 164.038 9.71603 158.746 7.85584C155.675 6.77597 150.794 7.83834 149.26 10.6487C148.628 11.8078 148.728 12.9639 148.769 13.5469C149.307 21.3798 146.005 29.8881 145.765 29.8538C145.56 29.8246 145.741 23.3169 146.376 16.0189C146.623 13.178 146.955 10.0376 145.753 9.51495C145.061 9.21367 144.144 9.90716 143.682 10.2555C133.54 17.9052 132.353 17.8338 130.703 20.8802C128.644 24.6809 128.583 28.3172 128.543 29.9667C128.013 51.734 123.347 53.3118 123.83 86.0299C124.078 102.784 125.618 123.847 122 132.593C121.4 134.043 120.136 136.417 120.044 139.924C119.911 145.031 122.402 147.23 120.979 151.177C120.319 153.009 119.532 153.232 118.919 155.618C118.3 158.026 118.502 160.133 118.612 161.193C118.933 164.268 119.885 166.093 119.75 166.148C119.533 166.236 116.456 161.845 115.619 155.929C114.946 151.179 116.252 149.212 116.643 143.849C117.075 137.928 115.935 134.146 115.088 129.706C114.157 124.821 114.259 122.691 114.554 97.0815C114.881 68.7807 114.771 70.1705 114.848 69.1026C116.824 41.7475 124.942 18.0987 117.291 11.8017C116.451 11.1102 114.965 10.2527 112.339 7.98452C107.237 3.57752 105.467 0.439129 103.569 0.968943C101.778 1.4689 101.266 4.84613 100.683 4.68725C100.125 4.53524 101.102 1.57699 99.856 0.454914C98.3465 -0.904623 94.427 1.19816 94.0815 1.38724C92.5973 2.20049 87.7527 5.30079 85.4274 17.085C83.4349 27.1834 84.1294 39.4182 85.0357 54.2524C85.0357 54.2524 85.2458 57.6896 84.7282 57.7627C83.2043 57.9779 78.5807 19.8552 65.9345 13.9985C64.8106 13.4779 60.6858 11.8521 59.4371 13.2796C58.4009 14.4638 59.9201 17.0923 58.718 18.029C58.0887 18.5194 57.2589 18.122 56.1373 17.994C53.5293 17.6958 51.3753 19.0852 49.644 20.2025C45.0706 23.1532 44.3254 30.7487 44.1849 32.1817C43.0472 43.782 50.7018 54.8402 61.2232 71.8172C63.2085 75.0208 68.5683 84.1018 79.2875 102.264C89.1563 118.984 98.8963 136.284 98.4884 136.529C98.1504 136.733 91.3281 124.935 79.7033 108.561C62.8791 84.8629 54.2343 77.2684 47.1977 72.2379C32.1001 61.4447 22.245 60.9111 20.998 62.7544C20.6981 63.1978 20.4479 64.4417 19.3493 64.9234C18.0468 65.4948 17.0185 64.3518 16.3584 64.7186C14.8273 65.5699 15.9063 74.1986 21.627 81.0279C25.323 85.44 29.8834 87.8201 29.675 88.1471C29.3583 88.644 19.3414 82.3377 17.7099 84.2304C17.046 85.0008 18.1188 86.7251 17.2993 87.328C16.525 87.8976 15.2934 86.5604 12.9674 86.711C12.4063 86.7474 10.9235 86.8435 10.4927 87.5384C9.15864 89.6899 17.9933 97.447 19.0583 98.3738C25.5002 103.98 30.3235 106.671 37.1126 110.959C48.2922 118.021 55.1176 123.3 54.9606 123.545C54.6936 123.96 32.3407 112.741 20.5072 107.975C20.5072 107.975 16.3824 106.313 9.36841 106.329C6.84294 106.335 4.30067 106.608 3.71489 107.991C3.22508 109.148 4.52347 110.094 4.00864 111.494C3.3687 113.234 0.913148 112.996 0.297546 114.49C-0.345134 116.05 1.53766 118.234 2.36269 119.135C8.3511 125.671 17.0257 128.329 16.806 129.141C16.5366 130.138 3.5867 125.789 0.61563 130.079C-0.0153959 130.994 -0.00922619 132.892 0.00311326 136.687C0.0123678 139.518 0.0192231 141.605 0.41957 143.501C1.77382 149.917 8.13378 156.525 12.6987 155.677C13.5371 155.521 13.3201 155.298 19.0902 151.234C22.1027 149.111 23.7374 148.062 24.864 148.65C25.8906 149.185 25.5986 150.611 26.9281 151.333C27.9763 151.901 28.7863 151.355 29.9187 151.434C32.2413 151.596 33.0372 154.184 35.5939 157.006C38.1286 159.804 42.6575 163.124 45.2906 161.956C46.855 161.263 46.7244 159.44 48.0735 159.271C50.0166 159.026 50.9476 162.724 53.6444 162.984C55.2167 163.136 55.5087 161.937 57.4594 161.33C61.1509 160.181 63.6188 163.379 68.9083 164.421C72.0412 165.038 73.8335 164.44 76.9519 164.107C86.4074 163.095 94.6944 165.943 99.2294 167.501C106.431 169.976 113.698 172.473 118.212 179.363C119.878 181.907 120.631 184.775 122.137 190.511C124.76 200.505 126.136 212.682 128.44 212.705C128.889 212.709 129.47 212.252 130.399 212.497C131.257 212.723 131.776 213.38 132.05 213.735C134.009 216.281 135.399 219.059 135.559 218.999C135.696 218.947 135.003 216.8 134.886 216.433C133.098 210.862 132.402 205.829 130.29 202.174C129.959 201.601 129.677 201.206 129.258 200.832C127.756 199.489 126.306 200.033 125.338 199.079C124.901 198.648 124.567 197.915 124.82 195.156C125.152 191.552 125.951 190.326 126.26 188.238C126.814 184.504 125.036 183.175 124.812 180.083C124.429 174.784 129.047 170.367 131.199 168.309C139.216 160.642 155.87 162.579 173.995 164.362C203.649 167.279 231.317 169.201 234.014 161.644C235.078 158.663 232.477 153.589 235.246 151.423C236.934 150.101 239.062 151.078 240.298 149.561C241.529 148.049 241.143 144.959 239.779 142.954C237.698 139.895 233.593 139.727 216.366 138.425C215.482 138.358 208.517 137.823 208.528 137.396C208.544 136.762 223.953 138.9 236.988 131.186L236.987 131.185ZM144.408 148.408L135.678 155.686L131.443 160.003C131.443 160.003 125.22 169.175 129.801 161.128C134.382 153.081 145.013 146.937 145.013 146.937L144.408 148.408ZM183.338 140.08C182.549 140.253 179.681 141.053 173.945 142.652C170.529 143.605 167.792 144.395 164.995 146.467C164.286 146.992 164.225 147.117 163.489 147.62C160.016 149.993 156.203 150.752 156.045 150.37C155.913 150.049 158.309 148.789 161.523 147.1C164.077 145.758 167.285 144.084 171.73 142.386C176.078 140.724 184.901 137.782 196.404 137.053C198.408 136.926 200.06 136.893 201.15 136.886C202.086 136.89 202.3 136.941 202.304 136.99C202.33 137.304 193.827 137.776 183.338 140.079L183.338 140.08ZM191.574 121.921C186.953 124.833 185.168 127.129 180.325 128.458C178.984 128.826 178.341 128.869 176.692 129.434C173.005 130.698 170.812 132.385 168.628 133.87C162.829 137.812 157.311 140.182 157.197 139.991C157.101 139.831 160.557 137.569 162.779 136.176C165.475 134.487 167.546 133.333 169.78 132.096C177.125 128.027 177.214 128.058 180.768 126.063C187.688 122.179 187.734 121.849 190.959 120.385C195.084 118.513 198.135 117.633 200.279 117.026C201.782 116.6 203.654 116.041 203.719 116.216C203.831 116.519 198.085 117.817 191.574 121.92V121.921Z" fill="currentColor"/>
</svg>
