<svg viewBox="0 0 177 213" fill="none" xmlns="http://www.w3.org/2000/svg">
<path d="M171.869 75.2798C174.42 74.6624 178.271 89.1325 175.14 95.9884C173.732 99.0707 175.643 97.9218 172.765 99.8167C170.914 107.29 158.667 111.638 158.169 119.918C157.722 121.145 157.576 126.447 158.103 128.596C157.312 133.803 155.349 136.161 150.36 143.55C145.957 151.722 138.883 161.645 138.883 161.645C138.883 161.645 130.374 172.14 128.847 173.654C127.62 178.473 109.767 190.386 106.426 196.573C102.315 200.912 96.3296 200.422 90.0851 201.401C88.5514 204.005 85.4368 203.822 84.0574 206.124C83.7314 206.123 80.1343 205.614 78.7527 206.327C71.7741 209.473 72.2505 214.287 63.0365 212.461C54.3559 212.408 36.3784 197.923 32.3543 196.086C25.0678 191.591 27.7873 194.442 23.7447 186.34C19.6882 180.881 18.862 175.708 19.5347 169.468C16.3042 161.85 13.4397 154.607 11.2106 145.861C9.69545 140.797 0.969547 122.889 0.904019 112.073C-1.3405 98.2541 13.2117 102.791 4.38712 86.9906C-8.60663 52.2003 10.6972 34.0668 18.0368 29.8305C24.4626 28.1431 17.0343 40.8097 21.7079 45.7836C24.4929 53.0515 36.5787 67.5415 39.2312 68.2496C43.6285 75.3473 45.0538 77.8838 42.1471 87.3884C38.1377 99.0602 40.9533 99.1414 41.5355 109.246C42.4801 110.923 49.7906 115.05 50.9622 117.101C51.1613 119.204 51.2974 123.818 54.6958 123.745C65.8483 121.578 62.476 103.953 65.4197 100.094C68.6526 95.281 72.4518 90.7492 72.6604 84.2874C74.3031 80.1081 73.1175 61.9889 74.203 60.9975C76.0312 59.4131 76.3527 49.2118 78.7431 46.1608C84.5531 35.9842 92.4367 34.6488 97.1151 18.9772C97.2537 15.6337 112.142 -4.66855 115.575 0.989288C115.763 1.85337 110.579 9.30731 114.353 7.65148C117.644 4.48416 114.789 10.5943 114.592 12.1205C110.889 24.3446 108.476 28.2714 112.457 41.1479C112.712 51.5804 114.359 54.9717 113.508 63.8641C114.295 70.1935 115.935 78.9796 108.614 83.5861C101.069 93.634 103.867 105.245 96.1727 115.307C90.744 119.617 97.7875 123.506 93.4201 125.14C94.1769 127.18 94.8143 130.287 97.0917 130.878C98.1528 135.464 100.749 139.513 106.329 136.062C116.076 131.578 122.604 112.896 131.172 106.83C140.533 99.2557 143.555 101.218 151.516 96.2324C155.66 91.1786 159.528 91.8282 163.998 88.6606C168.29 86.6588 167.519 76.3329 171.868 75.2803L171.869 75.2798Z" fill="currentColor"/>
</svg>
